<?xml version="1.0" encoding="UTF-8"?>
<svg id="Layer_1" xmlns="http://www.w3.org/2000/svg" xmlns:xlink="http://www.w3.org/1999/xlink" version="1.1" viewBox="0 0 1024 1024">
  <!-- Generator: Adobe Illustrator 29.4.0, SVG Export Plug-In . SVG Version: 2.1.0 Build 152)  -->
  <defs>
    <style>
      .st0 {
        fill: #101724;
      }

      .st1 {
        fill: url(#linear-gradient);
      }
    </style>
    <linearGradient id="linear-gradient" x1="349.93" y1="832.81" x2="635.53" y2="103.31" gradientTransform="translate(0 1024) scale(1 -1)" gradientUnits="userSpaceOnUse">
      <stop offset="0" stop-color="#3b82f6"/>
      <stop offset="1" stop-color="#14b8a6"/>
    </linearGradient>
  </defs>
  <g id="Layer_11" data-name="Layer_1">
    <circle class="st0" cx="512.6" cy="512" r="511.4"/>
    <path class="st1" d="M780.2,790.6c-4.1-6.3-8.4-12.1-12.4-17.8-2-2.7-3.8-5.3-5.7-8-68.1-95.7-138.2-194.2-213.8-300.9-1.6-2.3-3.1-4.8-4.8-7.2,21.4-8.8,38.9-21.6,52-37.6,39.6-47.2,45.6-112.5,15.8-166.3-25.9-47-65.1-73.1-113.7-75.6-53-2.7-105.7-2-150.7-.7-33.2.9-58.4,20.4-67.2,52.3-3.6,12.4-3.6,25.2-3.4,37.5v331.8c0,4.6,0,9.1.7,13.7,2.3,16.5,15.1,28.8,31.2,30.5,29.5,3.4,39.6-12.1,43.2-21.4,2.9-7.2,2.9-14.6,2.9-20.6V254.4h128.8c7.7,0,16.4,1.6,25,4.6,31.2,11.4,49.9,47.7,41.3,79.9-8.7,32.1-34.8,53-71.5,56.9-16.8,1.6-29.8,10.1-35.5,22.9s-3.4,27.6,6,40.8c15.8,22.3,31.7,44.3,47.6,66.7,15.8,22.1,31.7,44.3,47.2,66.5l146.9,206.7c2.1,3.1,4.3,6,6.5,9.1,7,9.9,13.9,19.7,21.8,29.3,7.7,9.1,18.5,13.7,29.5,13.7s17.5-2.9,25-8.8c16.8-13.5,19.9-33.9,8-51.8h-.5v-.2h-.2v-.1Z"/>
  </g>
</svg>